<svg xmlns="http://www.w3.org/2000/svg" viewBox="0 0 180 140" role="img" aria-labelledby="title desc">
  <title id="title">Rest Assured AFH simplified mark</title>
  <desc id="desc">A small home held by an open caring hand</desc>
  <defs>
    <linearGradient id="hand" x1="0" y1="0" x2="1" y2="1">
      <stop offset="0%" stop-color="#6f8f79"/>
      <stop offset="100%" stop-color="#3f5f4b"/>
    </linearGradient>
    <linearGradient id="home" x1="0" y1="0" x2="1" y2="1">
      <stop offset="0%" stop-color="#e4bd80"/>
      <stop offset="100%" stop-color="#b87257"/>
    </linearGradient>
  </defs>
  <path d="M28 91c20-14 36-18 55-18h34c12 0 23-5 34-14 5 6 7 13 7 20 0 29-30 50-68 50-31 0-53-12-62-38Z" fill="url(#hand)"/>
  <path d="M44 98c16 14 31 20 50 20 23 0 43-9 57-24" fill="none" stroke="#fff7ec" stroke-width="6" stroke-linecap="round"/>
  <path d="M88 22 50 55v45h22V73h33v27h22V55L88 22Z" fill="url(#home)"/>
  <path d="M72 54 88 40l16 14" fill="none" stroke="#fff7ec" stroke-width="5" stroke-linecap="round" stroke-linejoin="round" opacity=".9"/>
  <path d="M80 97h30" stroke="#fff7ec" stroke-width="5" stroke-linecap="round"/>
  <path d="M82 73h13" stroke="#fff7ec" stroke-width="5" stroke-linecap="round"/>
  <path d="M112 37h10v13" stroke="#b87257" stroke-width="6" stroke-linecap="round"/>
</svg>